<svg width="222" height="72" viewBox="0 0 222 72" fill="none" xmlns="http://www.w3.org/2000/svg">
<path d="M72 36C72 55.8823 55.8823 72 36 72C16.1178 72 0 55.8823 0 36C0 16.1178 16.1178 0 36 0C55.8823 0 72 16.1178 72 36Z" fill="#87D972"/>
<path d="M210.822 28.9878H215.279L221.324 46.7752H217.59L216.073 42.456H210.005L208.511 46.7752H204.777L210.822 28.9878ZM214.929 39.1122L213.085 33.6785H212.992L211.148 39.1122H214.929Z" fill="#87D972"/>
<path d="M195.427 47.1892C193.602 47.1892 191.99 46.8043 190.593 46.0346C189.195 45.2491 188.108 44.1574 187.33 42.7593C186.552 41.3456 186.163 39.7197 186.163 37.8818C186.163 36.0439 186.599 34.4181 187.473 33.0043C188.346 31.5905 189.497 30.4988 190.926 29.729C192.371 28.9593 193.919 28.5745 195.57 28.5745C197.269 28.5745 198.825 28.9829 200.238 29.7997C200.858 30.1453 201.382 30.5616 201.81 31.0486L199.143 33.6641C198.651 33.1614 198.071 32.7765 197.404 32.5095C196.753 32.2424 196.071 32.1089 195.356 32.1089C194.387 32.1089 193.49 32.3602 192.665 32.8629C191.839 33.3499 191.18 34.0332 190.688 34.9129C190.212 35.7926 189.973 36.7822 189.973 37.8818C189.973 39.06 190.196 40.0889 190.64 40.9686C191.085 41.8325 191.712 42.5001 192.522 42.9714C193.347 43.427 194.292 43.6547 195.356 43.6547C196.293 43.6547 197.245 43.4034 198.214 42.9007C198.436 42.7593 198.77 42.5001 199.214 42.1231L201.882 44.6679C201.024 45.4848 200.048 46.1131 198.952 46.553C197.857 46.9771 196.682 47.1892 195.427 47.1892Z" fill="#87D972"/>
<path d="M177.476 28.9878H181.199V46.7752H177.476V28.9878Z" fill="#87D972"/>
<path d="M164.383 32.3316H159.275V28.9878H173.339V32.3316H168.231V46.7752H164.383V32.3316Z" fill="#87D972"/>
<path d="M147.118 28.6216H151.576L157.62 46.7752H153.886L152.369 42.3672H146.301L144.808 46.7752H141.074L147.118 28.6216ZM151.225 38.9545L149.382 33.4088H149.288L147.445 38.9545H151.225ZM150.409 24.0239H153.629L150.455 27.247H147.701L150.409 24.0239Z" fill="#87D972"/>
<path d="M117.082 28.9878H122.798L126.962 42.0148H127.056L131.173 28.9878H136.937V46.7752H133.126V37.0223L133.22 35.1646H133.126L129.315 46.6823H124.704L120.893 35.1646H120.799L120.893 37.0223V46.7752H117.082V28.9878Z" fill="#87D972"/>
<path d="M107.567 28.9878H111.29V46.7752H107.567V28.9878Z" fill="#87D972"/>
<path d="M91.8483 28.9878H95.6933V43.4313H103.431V46.7752H91.8483V28.9878Z" fill="#87D972"/>
<path d="M172.904 3.64673H176.637L183.181 14.0546H183.265L183.181 12.1544V3.64673H186.579V20.0575H182.846L176.302 9.64961H176.218L176.302 11.5498V20.0575H172.904V3.64673Z" fill="#87D972"/>
<path d="M160.14 20.0576C158.63 20.0576 157.245 19.7097 155.985 19.0138C154.739 18.3043 153.748 17.3355 153.014 16.1075C152.294 14.8658 151.934 13.4877 151.934 11.9732C151.934 10.3767 152.315 8.96451 153.077 7.7365C153.838 6.50848 154.849 5.56018 156.11 4.8916C157.37 4.22301 158.713 3.88872 160.14 3.88872C161.566 3.88872 162.909 4.22301 164.17 4.8916C165.43 5.56018 166.441 6.50848 167.202 7.7365C167.964 8.96451 168.345 10.3767 168.345 11.9732C168.345 13.5969 167.964 15.0227 167.202 16.2507C166.441 17.4651 165.43 18.4066 164.17 19.0752C162.909 19.7301 161.566 20.0576 160.14 20.0576ZM155.237 11.9732C155.237 12.9146 155.452 13.7674 155.881 14.5315C156.31 15.2956 156.899 15.896 157.647 16.3326C158.395 16.7692 159.226 16.9876 160.14 16.9876C160.998 16.9876 161.801 16.7897 162.549 16.394C163.297 15.9847 163.9 15.398 164.357 14.6339C164.814 13.8698 165.042 12.9829 165.042 11.9732C165.042 11.0317 164.827 10.1789 164.398 9.41479C163.969 8.65069 163.38 8.05032 162.632 7.6137C161.885 7.17707 161.054 6.95876 160.14 6.95876C159.281 6.95876 158.478 7.16342 157.73 7.57276C156.982 7.96846 156.38 8.54835 155.923 9.31245C155.466 10.0766 155.237 10.9635 155.237 11.9732ZM160.991 0H163.858L161.033 2.7835H158.582L160.991 0Z" fill="#87D972"/>
<path d="M144.641 3.64673H148.287V20.0575H144.641V3.64673Z" fill="#87D972"/>
<path d="M134.467 20.0575C132.878 20.0575 131.476 19.7182 130.261 19.0396C129.045 18.3472 128.099 17.3847 127.422 16.1521C126.745 14.9058 126.406 13.4724 126.406 11.8521C126.406 10.2318 126.786 8.79846 127.546 7.55207C128.306 6.30569 129.307 5.3432 130.551 4.66461C131.808 3.98602 133.155 3.64673 134.591 3.64673C136.069 3.64673 137.423 4.0068 138.652 4.72693C139.191 5.0316 139.647 5.39859 140.02 5.82791L137.699 8.13372C137.271 7.69056 136.767 7.35127 136.187 7.11584C135.62 6.88041 135.026 6.7627 134.405 6.7627C133.562 6.7627 132.782 6.98428 132.063 7.42743C131.345 7.85675 130.772 8.45917 130.343 9.2347C129.929 10.0102 129.722 10.8827 129.722 11.8521C129.722 12.8908 129.915 13.7979 130.302 14.5734C130.689 15.3351 131.234 15.9236 131.939 16.3391C132.657 16.7407 133.479 16.9415 134.405 16.9415C135.22 16.9415 136.049 16.7199 136.891 16.2768C137.085 16.1521 137.375 15.9236 137.761 15.5913L140.082 17.8348C139.336 18.5549 138.487 19.1088 137.533 19.4966C136.58 19.8705 135.558 20.0575 134.467 20.0575Z" fill="#87D972"/>
<path d="M117.519 20.0575C116.036 20.0575 114.727 19.7182 113.593 19.0396C112.458 18.3472 111.575 17.3847 110.943 16.1521C110.312 14.9058 109.996 13.4724 109.996 11.8521C109.996 10.2318 110.35 8.79846 111.059 7.55207C111.768 6.30569 112.703 5.3432 113.864 4.66461C115.037 3.98602 116.294 3.64673 117.635 3.64673C119.014 3.64673 120.278 4.0068 121.425 4.72693C121.928 5.0316 122.354 5.39859 122.702 5.82791L120.536 8.13372C120.136 7.69056 119.665 7.35127 119.124 7.11584C118.595 6.88041 118.041 6.7627 117.461 6.7627C116.674 6.7627 115.946 6.98428 115.275 7.42743C114.605 7.85675 114.07 8.45917 113.67 9.2347C113.283 10.0102 113.09 10.8827 113.09 11.8521C113.09 12.8908 113.271 13.7979 113.632 14.5734C113.993 15.3351 114.502 15.9236 115.159 16.3391C115.83 16.7407 116.597 16.9415 117.461 16.9415C118.221 16.9415 118.995 16.7199 119.781 16.2768C119.962 16.1521 120.233 15.9236 120.594 15.5913L122.76 17.8348C122.063 18.5549 121.271 19.1088 120.381 19.4966C119.491 19.8705 118.537 20.0575 117.519 20.0575Z" fill="#87D972"/>
<path d="M97.4234 3.64673H101.599L107.261 20.0575H103.763L102.342 16.0726H96.6583L95.2593 20.0575H91.7616L97.4234 3.64673ZM101.271 12.9876L99.5439 7.97437H99.4565L97.7295 12.9876H101.271Z" fill="#87D972"/>
<path d="M217.857 65.4924C217.194 65.4924 216.598 65.3485 216.07 65.0606C215.551 64.7728 215.143 64.369 214.847 63.8492C214.551 63.3295 214.403 62.7298 214.403 62.0502C214.403 61.4105 214.547 60.8268 214.835 60.2991C215.123 59.7713 215.527 59.3556 216.046 59.0517C216.574 58.7479 217.178 58.5959 217.857 58.5959C218.505 58.5959 219.093 58.7399 219.621 59.0277C220.148 59.3076 220.564 59.7114 220.868 60.2391C221.172 60.7588 221.324 61.3625 221.324 62.0502C221.324 62.6898 221.18 63.2735 220.892 63.8013C220.604 64.321 220.196 64.7328 219.668 65.0366C219.141 65.3405 218.537 65.4924 217.857 65.4924ZM216.274 62.0502C216.274 62.5379 216.414 62.9417 216.694 63.2615C216.982 63.5734 217.37 63.7293 217.857 63.7293C218.361 63.7293 218.753 63.5734 219.033 63.2615C219.313 62.9417 219.453 62.5379 219.453 62.0502C219.453 61.5624 219.309 61.1586 219.021 60.8388C218.741 60.519 218.353 60.359 217.857 60.359C217.37 60.359 216.982 60.519 216.694 60.8388C216.414 61.1586 216.274 61.5624 216.274 62.0502Z" fill="#FFFFAC"/>
<path d="M205.972 55.9932H207.867V59.8552H207.915C208.107 59.5114 208.395 59.2275 208.779 59.0036C209.171 58.7717 209.574 58.6558 209.99 58.6558C210.742 58.6558 211.329 58.8597 211.753 59.2675C212.177 59.6673 212.389 60.235 212.389 60.9706V65.3484H210.494V61.7022C210.494 61.1585 210.39 60.7827 210.182 60.5748C209.974 60.3669 209.702 60.263 209.366 60.263C208.367 60.263 207.867 60.7987 207.867 61.8701V65.3484H205.972V55.9932Z" fill="#FFFFAC"/>
<path d="M201.227 65.4924C200.619 65.4924 200.052 65.3565 199.524 65.0846C199.004 64.8128 198.584 64.417 198.265 63.8972C197.953 63.3775 197.797 62.7618 197.797 62.0502C197.797 61.4025 197.937 60.8148 198.217 60.2871C198.497 59.7593 198.892 59.3476 199.404 59.0517C199.916 58.7479 200.511 58.5959 201.191 58.5959C201.783 58.5959 202.315 58.7119 202.786 58.9438C203.258 59.1756 203.634 59.4835 203.914 59.8673L202.774 61.0067C202.606 60.7828 202.407 60.6149 202.175 60.503C201.943 60.383 201.663 60.3231 201.335 60.3231C200.783 60.3231 200.356 60.479 200.052 60.7908C199.748 61.1027 199.596 61.5224 199.596 62.0502C199.596 62.5299 199.748 62.9377 200.052 63.2735C200.356 63.6014 200.787 63.7653 201.347 63.7653C201.627 63.7653 201.859 63.7373 202.043 63.6813C202.227 63.6254 202.462 63.4814 202.75 63.2496L203.914 64.413C203.61 64.7648 203.23 65.0326 202.774 65.2165C202.327 65.4004 201.811 65.4924 201.227 65.4924Z" fill="#FFFFAC"/>
<path d="M192.87 65.4924C192.27 65.4924 191.711 65.3525 191.191 65.0726C190.679 64.7848 190.268 64.381 189.956 63.8612C189.644 63.3415 189.488 62.7418 189.488 62.0622C189.488 61.3905 189.636 60.7908 189.932 60.2631C190.228 59.7354 190.631 59.3276 191.143 59.0397C191.655 58.7439 192.223 58.5959 192.846 58.5959C193.51 58.5959 194.074 58.7479 194.537 59.0517C195.009 59.3476 195.361 59.7593 195.593 60.2871C195.833 60.8068 195.953 61.3945 195.953 62.0502C195.953 62.1701 195.941 62.37 195.917 62.6499H191.299C191.331 62.9857 191.507 63.2576 191.827 63.4654C192.147 63.6653 192.526 63.7653 192.966 63.7653C193.254 63.7653 193.526 63.7333 193.782 63.6693C194.046 63.6054 194.301 63.4894 194.549 63.3215L195.629 64.4369C195.301 64.7728 194.901 65.0326 194.429 65.2165C193.966 65.4004 193.446 65.4924 192.87 65.4924ZM194.142 61.2466C194.11 60.9507 193.97 60.7069 193.722 60.515C193.474 60.3231 193.17 60.2271 192.81 60.2271C192.402 60.2271 192.063 60.3191 191.791 60.503C191.527 60.6869 191.359 60.9347 191.287 61.2466H194.142Z" fill="#FFFFAC"/>
<path d="M181.057 55.9932H182.952V59.8552H183C183.192 59.5114 183.48 59.2275 183.863 59.0036C184.255 58.7717 184.659 58.6558 185.075 58.6558C185.826 58.6558 186.414 58.8597 186.838 59.2675C187.262 59.6673 187.473 60.235 187.473 60.9706V65.3484H185.578V61.7022C185.578 61.1585 185.474 60.7827 185.267 60.5748C185.059 60.3669 184.787 60.263 184.451 60.263C183.452 60.263 182.952 60.7987 182.952 61.8701V65.3484H181.057V55.9932Z" fill="#FFFFAC"/>
<path d="M172.492 65.3484C171.597 65.3484 171.149 64.9006 171.149 64.005V55.9932H173.044V62.9376C173.044 63.1855 173.092 63.3614 173.188 63.4653C173.284 63.5693 173.444 63.6212 173.668 63.6212H174.531V65.3484H172.492Z" fill="#FFFFAC"/>
<path d="M162.91 59.8075C163.741 59.0239 164.753 58.6321 165.944 58.6321C166.848 58.6321 167.571 58.856 168.115 59.3037C168.667 59.7515 168.943 60.4431 168.943 61.3787V65.3486H167.047V64.4131H167C166.688 64.7809 166.352 65.0528 165.992 65.2287C165.64 65.4046 165.224 65.4926 164.745 65.4926C164.377 65.4926 164.033 65.4126 163.713 65.2527C163.393 65.0928 163.134 64.8609 162.934 64.557C162.742 64.2532 162.646 63.8894 162.646 63.4656C162.646 63.0658 162.758 62.714 162.982 62.4101C163.205 62.0983 163.525 61.8584 163.941 61.6905C164.357 61.5146 164.841 61.4266 165.392 61.4266H167.047V61.2947C167.047 60.9509 166.928 60.699 166.688 60.5391C166.448 60.3712 166.124 60.2872 165.716 60.2872C165.42 60.2872 165.132 60.3392 164.853 60.4431C164.581 60.5391 164.305 60.703 164.025 60.9349L162.91 59.8075ZM164.517 63.3936C164.517 63.5536 164.593 63.7015 164.745 63.8374C164.897 63.9733 165.144 64.0413 165.488 64.0413C165.816 64.0413 166.096 63.9773 166.328 63.8494C166.568 63.7135 166.748 63.5496 166.868 63.3577C166.988 63.1578 167.047 62.9699 167.047 62.7939V62.746H165.344C165.033 62.746 164.817 62.8139 164.697 62.9499C164.577 63.0858 164.517 63.2337 164.517 63.3936Z" fill="#FFFFAC"/>
<path d="M152.657 65.4924C151.994 65.4924 151.398 65.3485 150.87 65.0606C150.351 64.7728 149.943 64.369 149.647 63.8492C149.351 63.3295 149.203 62.7298 149.203 62.0502C149.203 61.4105 149.347 60.8268 149.635 60.2991C149.923 59.7713 150.327 59.3556 150.846 59.0517C151.374 58.7479 151.978 58.5959 152.657 58.5959C153.305 58.5959 153.893 58.7399 154.42 59.0277C154.948 59.3076 155.364 59.7114 155.668 60.2391C155.972 60.7588 156.124 61.3625 156.124 62.0502C156.124 62.6898 155.98 63.2735 155.692 63.8013C155.404 64.321 154.996 64.7328 154.468 65.0366C153.941 65.3405 153.337 65.4924 152.657 65.4924ZM151.074 62.0502C151.074 62.5379 151.214 62.9417 151.494 63.2615C151.782 63.5734 152.17 63.7293 152.657 63.7293C153.161 63.7293 153.553 63.5734 153.833 63.2615C154.113 62.9417 154.253 62.5379 154.253 62.0502C154.253 61.5624 154.109 61.1586 153.821 60.8388C153.541 60.519 153.153 60.359 152.657 60.359C152.17 60.359 151.782 60.519 151.494 60.8388C151.214 61.1586 151.074 61.5624 151.074 62.0502Z" fill="#FFFFAC"/>
<path d="M140.772 55.9932H142.667V59.8552H142.715C142.907 59.5114 143.195 59.2275 143.579 59.0036C143.97 58.7717 144.374 58.6558 144.79 58.6558C145.542 58.6558 146.129 58.8597 146.553 59.2675C146.977 59.6673 147.189 60.235 147.189 60.9706V65.3484H145.294V61.7022C145.294 61.1585 145.19 60.7827 144.982 60.5748C144.774 60.3669 144.502 60.263 144.166 60.263C143.167 60.263 142.667 60.7987 142.667 61.8701V65.3484H140.772V55.9932Z" fill="#FFFFAC"/>
<path d="M136.027 65.4924C135.419 65.4924 134.852 65.3565 134.324 65.0846C133.804 64.8128 133.384 64.417 133.065 63.8972C132.753 63.3775 132.597 62.7618 132.597 62.0502C132.597 61.4025 132.737 60.8148 133.017 60.2871C133.296 59.7593 133.692 59.3476 134.204 59.0517C134.716 58.7479 135.311 58.5959 135.991 58.5959C136.583 58.5959 137.114 58.7119 137.586 58.9438C138.058 59.1756 138.434 59.4835 138.714 59.8673L137.574 61.0067C137.406 60.7828 137.206 60.6149 136.975 60.503C136.743 60.383 136.463 60.3231 136.135 60.3231C135.583 60.3231 135.155 60.479 134.852 60.7908C134.548 61.1027 134.396 61.5224 134.396 62.0502C134.396 62.5299 134.548 62.9377 134.852 63.2735C135.155 63.6014 135.587 63.7653 136.147 63.7653C136.427 63.7653 136.659 63.7373 136.843 63.6813C137.027 63.6254 137.262 63.4814 137.55 63.2496L138.714 64.413C138.41 64.7648 138.03 65.0326 137.574 65.2165C137.126 65.4004 136.611 65.4924 136.027 65.4924Z" fill="#FFFFAC"/>
<path d="M128.546 58.7998H130.441V65.3484H128.546V58.7998ZM128.402 57.2526C128.402 56.9487 128.51 56.6929 128.726 56.485C128.942 56.2691 129.198 56.1611 129.494 56.1611C129.798 56.1611 130.053 56.2691 130.261 56.485C130.477 56.6929 130.585 56.9487 130.585 57.2526C130.585 57.5484 130.477 57.8043 130.261 58.0202C130.053 58.2361 129.798 58.344 129.494 58.344C129.198 58.344 128.942 58.2361 128.726 58.0202C128.51 57.8043 128.402 57.5484 128.402 57.2526Z" fill="#FFFFAC"/>
<path d="M122.577 65.4923C121.953 65.4923 121.401 65.3364 120.922 65.0245C120.442 64.7127 120.07 64.3009 119.806 63.7892C119.55 63.2774 119.422 62.7257 119.422 62.134C119.422 61.4703 119.558 60.8747 119.83 60.3469C120.11 59.8112 120.494 59.3914 120.982 59.0876C121.469 58.7837 122.017 58.6318 122.625 58.6318C123.017 58.6318 123.336 58.6798 123.584 58.7757C123.84 58.8637 124.064 59.0356 124.256 59.2915H124.304V55.9932H126.199V65.3484H124.304V64.5568H124.256C124.16 64.8606 123.964 65.0925 123.668 65.2524C123.38 65.4123 123.017 65.4923 122.577 65.4923ZM121.293 62.0501C121.293 62.5378 121.429 62.9416 121.701 63.2614C121.981 63.5733 122.365 63.7292 122.853 63.7292C123.348 63.7292 123.732 63.5733 124.004 63.2614C124.284 62.9496 124.424 62.5458 124.424 62.0501C124.424 61.5543 124.284 61.1505 124.004 60.8387C123.732 60.5188 123.348 60.3589 122.853 60.3589C122.365 60.3589 121.981 60.5188 121.701 60.8387C121.429 61.1585 121.293 61.5623 121.293 62.0501Z" fill="#FFFFAC"/>
<path d="M111.146 65.3484C110.25 65.3484 109.802 64.9006 109.802 64.005V55.9932H111.698V62.9376C111.698 63.1855 111.745 63.3614 111.841 63.4653C111.937 63.5693 112.097 63.6212 112.321 63.6212H113.185V65.3484H111.146Z" fill="#FFFFAC"/>
<path d="M104.636 65.4924C104.036 65.4924 103.476 65.3525 102.957 65.0726C102.445 64.7848 102.033 64.381 101.721 63.8612C101.409 63.3415 101.253 62.7418 101.253 62.0622C101.253 61.3905 101.401 60.7908 101.697 60.2631C101.993 59.7354 102.397 59.3276 102.909 59.0397C103.42 58.7439 103.988 58.5959 104.612 58.5959C105.275 58.5959 105.839 58.7479 106.303 59.0517C106.775 59.3476 107.126 59.7593 107.358 60.2871C107.598 60.8068 107.718 61.3945 107.718 62.0502C107.718 62.1701 107.706 62.37 107.682 62.6499H103.064C103.096 62.9857 103.272 63.2576 103.592 63.4654C103.912 63.6653 104.292 63.7653 104.732 63.7653C105.019 63.7653 105.291 63.7333 105.547 63.6693C105.811 63.6054 106.067 63.4894 106.315 63.3215L107.394 64.4369C107.066 64.7728 106.667 65.0326 106.195 65.2165C105.731 65.4004 105.211 65.4924 104.636 65.4924ZM105.907 61.2466C105.875 60.9507 105.735 60.7069 105.487 60.515C105.239 60.3231 104.936 60.2271 104.576 60.2271C104.168 60.2271 103.828 60.3191 103.556 60.503C103.292 60.6869 103.124 60.9347 103.052 61.2466H105.907Z" fill="#FFFFAC"/>
<path d="M95.5017 65.4923C94.878 65.4923 94.3263 65.3364 93.8465 65.0245C93.3668 64.7127 92.995 64.3009 92.7311 63.7892C92.4752 63.2774 92.3473 62.7257 92.3473 62.134C92.3473 61.4703 92.4832 60.8747 92.7551 60.3469C93.0349 59.8112 93.4187 59.3914 93.9065 59.0876C94.3942 58.7837 94.942 58.6318 95.5496 58.6318C95.9414 58.6318 96.2613 58.6798 96.5092 58.7757C96.765 58.8637 96.9889 59.0356 97.1808 59.2915H97.2288V55.9932H99.1238V65.3484H97.2288V64.5568H97.1808C97.0849 64.8606 96.889 65.0925 96.5931 65.2524C96.3053 65.4123 95.9414 65.4923 95.5017 65.4923ZM94.2183 62.0501C94.2183 62.5378 94.3543 62.9416 94.6261 63.2614C94.906 63.5733 95.2898 63.7292 95.7775 63.7292C96.2733 63.7292 96.6571 63.5733 96.9289 63.2614C97.2088 62.9496 97.3487 62.5458 97.3487 62.0501C97.3487 61.5543 97.2088 61.1505 96.9289 60.8387C96.6571 60.5188 96.2733 60.3589 95.7775 60.3589C95.2898 60.3589 94.906 60.5188 94.6261 60.8387C94.3543 61.1585 94.2183 61.5623 94.2183 62.0501Z" fill="#FFFFAC"/>
<path d="M80.7628 43.5681L88.1146 45.8101C84.6058 53.2007 77.0034 58.3492 68.1478 58.3492C56.0341 58.3492 46.176 48.5505 46.176 36.5097C46.176 24.3859 56.0341 14.5872 68.1478 14.5872C77.0034 14.5872 84.6058 19.7356 88.1146 27.1262L80.7628 29.3683C78.2565 25.0502 73.5781 22.1438 68.2314 22.1438C60.2112 22.1438 53.7784 28.6209 53.7784 36.5097C53.7784 44.4815 60.2112 50.8756 68.2314 50.8756C73.5781 50.8756 78.2565 47.9692 80.7628 43.5681Z" fill="#FFFFAC"/>
</svg>
